<svg version="1.1" id="Layer_1" xmlns="http://www.w3.org/2000/svg" xmlns:xlink="http://www.w3.org/1999/xlink" x="0px" y="0px"
	 width="100%" viewBox="0 0 1500 1500" enable-background="new 0 0 1500 1500" xml:space="preserve">
<path fill="#000000" opacity="0.00000" stroke="none" 
	d="
M841.000000,1501.000000 
	C560.666687,1501.000000 280.833435,1501.000000 1.000113,1501.000000 
	C1.000075,1001.000122 1.000075,501.000275 1.000038,1.000314 
	C500.999756,1.000209 1000.999512,1.000209 1500.999512,1.000105 
	C1500.999634,500.999664 1500.999634,1000.999329 1500.999756,1500.999512 
	C1281.166626,1501.000000 1061.333374,1501.000000 841.000000,1501.000000 
M942.016785,464.959412 
	C940.209045,466.216339 938.550598,467.835541 936.562500,468.654724 
	C932.442200,470.352478 927.888489,471.134308 923.984253,473.188446 
	C918.241638,476.209778 911.860474,478.568054 909.497375,485.895752 
	C907.204590,493.005127 909.531067,500.100403 916.231262,503.019928 
	C923.686523,506.268555 931.253906,509.259857 939.330811,512.593628 
	C938.891052,518.706970 939.096313,525.577271 937.750000,532.128723 
	C936.034180,540.478333 937.584961,545.078308 945.726440,548.847229 
	C951.038757,551.306396 960.084961,549.345764 963.894836,544.527771 
	C968.142700,539.155823 972.903503,534.189514 976.959229,529.592773 
	C983.117371,531.779358 988.606873,534.337036 994.379700,535.617493 
	C1000.941895,537.072998 1007.217041,535.538818 1011.611938,529.870972 
	C1015.098999,525.373718 1016.367920,520.255859 1013.985840,514.809326 
	C1011.283447,508.630341 1008.352112,502.551483 1005.913879,497.280029 
	C1009.585083,489.914673 1014.293213,483.201477 1016.345520,475.756165 
	C1020.087036,462.183136 1012.017700,455.892303 998.784790,456.987549 
	C993.286438,457.442657 987.809509,458.155853 982.557495,458.726166 
	C979.725281,454.243225 977.326050,449.782166 974.259949,445.839722 
	C972.403503,443.452759 969.513855,441.869324 966.975586,439.184479 
	C962.042908,430.356903 957.879944,420.967072 951.959290,412.861084 
	C946.127075,404.876190 942.385193,397.179108 946.273682,387.521667 
	C949.553284,379.376282 950.148376,370.952362 950.028198,362.331726 
	C949.863281,350.498352 943.629944,342.322449 933.783813,337.166962 
	C924.637390,332.377838 914.909851,328.663208 905.323181,324.757751 
	C887.262085,317.399994 874.734253,302.937775 860.915894,290.213074 
	C852.929321,282.858612 846.063904,274.297272 838.203735,266.792480 
	C826.030640,255.169891 813.919617,243.387756 800.827148,232.861221 
	C793.978577,227.354889 785.502869,222.558945 777.039795,220.658722 
	C761.404785,217.148117 745.358826,217.587524 729.370667,220.836304 
	C709.985535,224.775360 692.077148,232.166428 675.713806,242.899414 
	C661.736633,252.067307 648.220642,262.041840 635.182312,272.508698 
	C621.579163,283.429016 608.490540,295.041351 595.708069,306.922455 
	C566.988464,333.616821 542.105408,364.373810 509.677582,387.189697 
	C502.396881,392.312286 499.363708,400.722870 501.951843,409.994781 
	C503.436920,415.315002 501.996674,418.902069 497.946991,422.894135 
	C489.777863,430.947083 482.522522,439.923676 474.790955,448.429016 
	C474.024109,449.272614 472.539642,449.994385 471.442566,449.924164 
	C461.778992,449.305481 452.028137,449.117828 442.495880,447.595734 
	C427.815765,445.251709 413.262482,442.075562 398.701477,439.032104 
	C375.648773,434.213745 352.634003,429.213898 329.603485,424.289459 
	C319.427612,422.113647 309.813843,417.481445 299.026855,417.915558 
	C290.216949,418.270111 281.190063,425.684479 279.964020,434.333130 
	C278.563782,444.210724 281.245087,453.301544 285.430389,462.096649 
	C293.101959,478.217987 303.355865,492.703033 314.363098,506.612885 
	C324.610687,519.562622 335.330688,532.154297 346.208740,544.583313 
	C352.425201,551.686157 359.372559,558.149231 365.113922,564.577209 
	C361.093201,563.231384 357.000885,562.066772 353.063049,560.511108 
	C320.591034,547.683533 289.169434,532.764038 260.283356,512.964172 
	C253.506653,508.319092 245.929337,504.580414 241.472763,497.018829 
	C237.959183,491.057190 230.094391,489.033966 225.105103,492.346436 
	C218.584198,496.675812 217.086166,504.526337 221.412292,510.971680 
	C229.539230,523.079773 237.587036,535.240967 245.273849,547.708130 
	C245.158646,547.834290 245.043427,547.960510 244.193207,547.992798 
	C236.129608,545.299927 228.146729,542.322510 219.976532,540.005554 
	C213.611847,538.200623 206.914398,540.497803 204.841751,544.615601 
	C200.777603,552.689941 200.439011,557.715942 206.860306,564.384521 
	C212.384399,570.121399 217.625336,576.138611 223.279602,581.741089 
	C239.769211,598.079712 255.744400,615.026733 273.197327,630.274597 
	C286.198059,641.632751 300.931000,651.098999 315.364166,660.698669 
	C327.472839,668.752258 340.283386,675.747437 352.745087,683.274231 
	C362.298126,689.044189 372.170929,694.382690 381.222687,700.861572 
	C394.586426,710.426697 407.375427,720.797913 420.354889,730.895691 
	C429.091675,737.692749 437.734802,744.610168 446.933624,751.879822 
	C433.376190,749.798889 420.639160,747.636230 407.840790,745.935242 
	C393.834015,744.073730 379.807037,741.969727 365.721771,741.200562 
	C350.754364,740.383057 335.698181,740.673767 320.700165,741.125793 
	C311.533508,741.402039 302.524628,743.157959 294.300995,747.881104 
	C290.214844,750.227966 287.245148,756.827026 289.440613,762.590942 
	C291.312286,767.504700 297.675507,770.838379 302.723236,769.034241 
	C317.262299,763.837708 332.299042,763.776428 347.392365,764.038147 
	C350.829498,764.097778 354.252655,764.734619 357.691315,764.977112 
	C367.893402,765.696350 378.176331,765.788818 388.287231,767.161194 
	C404.166656,769.316406 419.958588,772.165222 435.738159,774.996033 
	C460.161804,779.377625 483.937866,786.167297 508.597015,795.001404 
	C505.181213,795.001404 503.183350,795.059998 501.189758,794.992493 
	C477.512268,794.190308 453.888550,795.673523 430.560303,799.242004 
	C411.679138,802.130249 392.970886,806.617981 374.501862,811.573730 
	C361.189209,815.145874 348.490021,820.828918 337.570038,829.719299 
	C332.999054,833.440796 331.465729,840.950012 334.659760,845.075623 
	C339.586914,851.439819 345.271454,852.410522 350.794159,848.605591 
	C365.237335,838.655090 381.456421,833.036682 398.244629,829.185730 
	C422.774475,823.558960 447.731842,820.047546 472.864502,819.232178 
	C489.360870,818.696960 506.191437,818.759583 522.401306,821.422119 
	C545.418213,825.202759 568.093445,831.262329 590.739563,837.034851 
	C606.604431,841.078857 622.020813,846.914124 637.924011,850.767029 
	C653.815552,854.617065 670.002502,857.390991 686.174927,859.893738 
	C698.822388,861.851074 711.617798,863.268250 724.397095,863.867371 
	C747.068909,864.930298 769.514587,862.701477 791.803406,858.118835 
	C815.689880,853.207703 838.786926,846.182861 860.774719,835.574280 
	C865.627808,833.232727 869.506104,829.137085 876.432495,832.613220 
	C883.047791,835.933411 891.103027,836.384583 899.236938,838.261047 
	C895.201172,841.614746 891.320496,844.153564 888.302307,847.475952 
	C879.115784,857.588440 869.508423,867.453735 861.488770,878.453430 
	C853.327942,889.646606 846.172852,901.771301 846.949707,916.696167 
	C847.279419,923.031738 851.136475,929.000610 856.074646,928.945740 
	C863.332092,928.865295 867.622253,925.761536 869.065186,917.781006 
	C869.957825,912.843994 870.838623,907.426025 873.488525,903.378662 
	C880.414673,892.799744 887.881165,882.501038 895.932617,872.751648 
	C905.157959,861.580811 916.879089,853.311890 930.130615,847.372986 
	C934.091797,845.597839 938.134155,843.420349 942.328552,842.870789 
	C950.906372,841.746704 959.612366,841.601501 968.331360,841.048950 
	C972.583008,847.071228 977.285522,853.732178 982.035034,860.459717 
	C979.026978,861.041260 976.325256,861.186340 973.909363,862.092957 
	C959.891968,867.353577 946.942322,874.707031 935.041138,883.684998 
	C926.980103,889.765930 919.675598,896.845886 911.986145,903.424561 
	C904.219849,910.068909 898.894592,918.420654 895.695862,927.970154 
	C894.820374,930.584045 895.002747,934.907166 896.624390,936.772278 
	C904.371399,945.681702 914.198364,942.793701 918.812622,933.746033 
	C920.935913,929.582642 923.438293,925.385925 926.641968,922.040466 
	C938.546326,909.609192 952.479919,899.850647 967.551392,891.520752 
	C978.724060,885.345764 990.631958,881.585449 1003.132568,881.319763 
	C1010.047913,881.172791 1017.050293,884.263916 1023.980225,886.026184 
	C1027.342163,886.881104 1030.663818,887.428406 1032.780396,891.141785 
	C1034.946167,894.941650 1038.094238,898.230957 1041.079346,901.499817 
	C1043.875000,904.561096 1047.020264,907.303101 1050.527710,910.682800 
	C1048.004272,911.088684 1046.579224,911.476013 1045.142822,911.524170 
	C1032.279541,911.955811 1019.680176,914.085388 1007.486633,918.100586 
	C998.641724,921.013062 989.899963,924.332214 981.347900,928.016907 
	C971.031494,932.461914 960.874634,937.468628 953.392151,946.211670 
	C949.134277,951.186707 943.412781,956.019104 947.433228,963.962036 
	C949.511658,968.068420 952.996521,970.926575 957.307373,970.749939 
	C961.241211,970.588867 966.949951,969.621216 968.619873,966.963135 
	C972.884644,960.174622 979.318054,956.494080 985.713013,953.403992 
	C995.814941,948.522766 1006.613770,945.004395 1017.281494,941.392944 
	C1031.450195,936.596252 1046.190674,935.891602 1060.938110,937.163513 
	C1067.004395,937.686646 1072.929932,939.841858 1078.442993,941.142273 
	C1079.151611,954.796448 1079.824219,967.755371 1080.506958,980.908813 
	C1065.894897,975.756104 1050.798706,975.129944 1035.652100,975.072266 
	C1031.386353,975.055969 1027.098755,975.951050 1022.855896,975.738037 
	C1012.928406,975.239624 1003.334717,976.881287 993.883667,979.577148 
	C987.503296,981.397034 981.670898,988.217651 980.944336,993.052185 
	C980.055298,998.968506 983.171936,1003.047974 987.347900,1005.451782 
	C991.373108,1007.768677 996.475342,1008.753723 1001.144958,1005.508972 
	C1005.756409,1002.304626 1010.836548,1000.569580 1016.592468,1000.938965 
	C1020.110413,1001.164734 1023.659363,1001.051514 1027.188599,1000.927368 
	C1033.645142,1000.700317 1040.152466,999.689514 1046.537720,1000.219788 
	C1054.875610,1000.912109 1063.115479,1002.784424 1071.874878,1004.227783 
	C1056.661865,1020.617432 1044.329102,1038.151733 1036.964966,1058.776123 
	C1033.398193,1056.495117 1029.966553,1054.565552 1026.822632,1052.245605 
	C1010.132080,1039.929932 992.485596,1029.208740 973.485413,1020.887817 
	C955.116760,1012.843201 936.098511,1008.435730 915.750488,1010.890564 
	C897.777832,1013.058838 882.315063,1020.038086 870.792725,1033.951904 
	C863.966797,1042.194580 857.479614,1051.354370 861.800537,1063.143799 
	C855.474487,1066.269043 848.863831,1068.640747 843.308289,1072.522461 
	C837.325867,1076.702271 831.619934,1081.721802 827.044006,1087.385254 
	C814.565674,1102.829468 810.772400,1120.793579 814.520203,1140.159424 
	C815.808105,1146.814331 817.350586,1153.881104 820.820374,1159.497070 
	C823.305542,1163.519409 823.716675,1166.087891 821.650574,1169.721558 
	C821.325989,1170.292358 821.062500,1170.902100 820.813049,1171.511230 
	C816.833740,1181.229492 814.265320,1191.295898 816.102844,1201.780640 
	C817.471985,1209.592896 819.892395,1217.224731 821.922607,1224.916382 
	C824.903931,1236.211304 829.867493,1239.759521 841.561890,1240.051514 
	C860.241272,1240.517944 878.106506,1236.109985 895.623535,1230.614014 
	C932.287720,1219.111328 967.377258,1203.593506 1001.927673,1186.895630 
	C1019.402161,1178.450562 1036.661133,1169.545288 1053.849243,1160.527222 
	C1063.234253,1155.603394 1072.991211,1150.927979 1081.235107,1144.432983 
	C1087.984131,1139.115723 1094.339844,1134.367188 1103.029785,1133.420166 
	C1104.621216,1133.246704 1106.190186,1132.651855 1107.713013,1132.096802 
	C1124.160889,1126.102295 1140.680664,1120.292603 1157.017578,1114.008179 
	C1180.588501,1104.940918 1202.423218,1092.941162 1221.564209,1076.120239 
	C1235.318726,1064.032959 1246.161743,1050.320801 1251.321167,1032.490479 
	C1252.256226,1029.259155 1253.232788,1025.120239 1255.626343,1023.409424 
	C1261.856934,1018.956116 1265.392334,1012.721191 1268.744751,1006.391174 
	C1274.542725,995.443359 1275.799194,983.169067 1276.690186,971.155151 
	C1277.908203,954.734192 1277.213867,938.238525 1273.961060,921.989014 
	C1269.888672,901.646423 1261.547974,883.333740 1248.031128,867.437256 
	C1244.405518,863.173401 1239.912109,859.246887 1240.324463,852.705322 
	C1240.444702,850.797913 1239.755859,848.828430 1239.367554,846.901611 
	C1235.406494,827.245911 1227.370239,809.135132 1217.766968,791.732483 
	C1202.632080,764.305237 1181.946899,742.222351 1153.965942,727.461548 
	C1149.825928,725.277527 1140.088867,716.848511 1137.844971,713.289856 
	C1131.319580,702.941040 1122.688110,694.586853 1113.352417,686.835388 
	C1095.365967,671.901367 1076.409302,658.634338 1053.995605,651.025146 
	C1047.377319,648.778198 1040.592773,646.711609 1034.446655,643.489807 
	C1030.129883,641.226868 1026.765503,637.147217 1023.308105,633.285950 
	C1031.013794,627.221191 1039.110107,621.580139 1046.297974,614.953674 
	C1051.753906,609.923828 1053.386841,602.055420 1052.343994,595.375488 
	C1050.371826,582.744690 1042.533325,573.367249 1029.511475,571.272888 
	C1009.913513,568.120850 990.102234,566.267883 970.361389,564.042725 
	C962.006592,563.101013 953.559326,562.933044 945.226013,561.856323 
	C929.158813,559.780273 913.094910,557.591980 897.123779,554.892822 
	C887.650940,553.291870 878.313721,550.791748 869.021240,548.301392 
	C867.134766,547.795776 864.815308,545.812927 864.237488,544.015442 
	C860.265686,531.660034 856.836731,519.131592 852.979492,506.737671 
	C847.011536,487.562012 837.178894,471.527924 817.219421,463.988739 
	C816.398254,463.678558 815.284546,462.871216 815.169373,462.156525 
	C813.694275,453.003693 811.727295,443.862366 811.203247,434.643219 
	C810.688660,425.591064 811.627991,416.450867 812.042358,407.354462 
	C812.176086,404.420166 812.301086,401.390045 813.146729,398.622803 
	C813.588745,397.176392 815.590576,395.176086 816.879944,395.181946 
	C827.396118,395.229797 837.918762,395.558472 848.414673,396.203918 
	C849.681824,396.281891 851.590820,398.624390 851.841980,400.142395 
	C852.590637,404.667542 852.637756,409.306641 853.002075,413.897827 
	C854.174805,428.675262 863.099731,441.668915 878.436035,445.008423 
	C888.005066,447.092102 897.809631,448.384155 907.124878,451.269775 
	C918.970337,454.939178 930.427551,459.861786 942.016785,464.959412 
z"/>
<path fill="#BD224A" opacity="1.000000" stroke="none" 
	d="
M1022.975891,633.878906 
	C1026.765503,637.147217 1030.129883,641.226868 1034.446655,643.489807 
	C1040.592773,646.711609 1047.377319,648.778198 1053.995605,651.025146 
	C1076.409302,658.634338 1095.365967,671.901367 1113.352417,686.835388 
	C1122.688110,694.586853 1131.319580,702.941040 1137.844971,713.289856 
	C1140.088867,716.848511 1149.825928,725.277527 1153.965942,727.461548 
	C1181.946899,742.222351 1202.632080,764.305237 1217.766968,791.732483 
	C1227.370239,809.135132 1235.406494,827.245911 1239.367554,846.901611 
	C1239.755859,848.828430 1240.444702,850.797913 1240.324463,852.705322 
	C1239.912109,859.246887 1244.405518,863.173401 1248.031128,867.437256 
	C1261.547974,883.333740 1269.888672,901.646423 1273.961060,921.989014 
	C1277.213867,938.238525 1277.908203,954.734192 1276.690186,971.155151 
	C1275.799194,983.169067 1274.542725,995.443359 1268.744751,1006.391174 
	C1265.392334,1012.721191 1261.856934,1018.956116 1255.626343,1023.409424 
	C1253.232788,1025.120239 1252.256226,1029.259155 1251.321167,1032.490479 
	C1246.161743,1050.320801 1235.318726,1064.032959 1221.564209,1076.120239 
	C1202.423218,1092.941162 1180.588501,1104.940918 1157.017578,1114.008179 
	C1140.680664,1120.292603 1124.160889,1126.102295 1107.713013,1132.096802 
	C1106.190186,1132.651855 1104.621216,1133.246704 1103.029785,1133.420166 
	C1094.339844,1134.367188 1087.984131,1139.115723 1081.235107,1144.432983 
	C1072.991211,1150.927979 1063.234253,1155.603394 1053.849243,1160.527222 
	C1036.661133,1169.545288 1019.402161,1178.450562 1001.927673,1186.895630 
	C967.377258,1203.593506 932.287720,1219.111328 895.623535,1230.614014 
	C878.106506,1236.109985 860.241272,1240.517944 841.561890,1240.051514 
	C829.867493,1239.759521 824.903931,1236.211304 821.922607,1224.916382 
	C819.892395,1217.224731 817.471985,1209.592896 816.102844,1201.780640 
	C814.265320,1191.295898 816.833740,1181.229492 820.813049,1171.511230 
	C821.062500,1170.902100 821.325989,1170.292358 821.650574,1169.721558 
	C823.716675,1166.087891 823.305542,1163.519409 820.820374,1159.497070 
	C817.350586,1153.881104 815.808105,1146.814331 814.520203,1140.159424 
	C810.772400,1120.793579 814.565674,1102.829468 827.044006,1087.385254 
	C831.619934,1081.721802 837.325867,1076.702271 843.308289,1072.522461 
	C848.863831,1068.640747 855.474487,1066.269043 861.800537,1063.143799 
	C857.479614,1051.354370 863.966797,1042.194580 870.792725,1033.951904 
	C882.315063,1020.038086 897.777832,1013.058838 915.750488,1010.890564 
	C936.098511,1008.435730 955.116760,1012.843201 973.485413,1020.887817 
	C992.485596,1029.208740 1010.132080,1039.929932 1026.822632,1052.245605 
	C1029.966553,1054.565552 1033.398193,1056.495117 1036.964966,1058.776123 
	C1044.329102,1038.151733 1056.661865,1020.617432 1071.874878,1004.227783 
	C1063.115479,1002.784424 1054.875610,1000.912109 1046.537720,1000.219788 
	C1040.152466,999.689514 1033.645142,1000.700317 1027.188599,1000.927368 
	C1023.659363,1001.051514 1020.110413,1001.164734 1016.592468,1000.938965 
	C1010.836548,1000.569580 1005.756409,1002.304626 1001.144958,1005.508972 
	C996.475342,1008.753723 991.373108,1007.768677 987.347900,1005.451782 
	C983.171936,1003.047974 980.055298,998.968506 980.944336,993.052185 
	C981.670898,988.217651 987.503296,981.397034 993.883667,979.577148 
	C1003.334717,976.881287 1012.928406,975.239624 1022.855896,975.738037 
	C1027.098755,975.951050 1031.386353,975.055969 1035.652100,975.072266 
	C1050.798706,975.129944 1065.894897,975.756104 1080.506958,980.908813 
	C1079.824219,967.755371 1079.151611,954.796448 1078.442993,941.142273 
	C1072.929932,939.841858 1067.004395,937.686646 1060.938110,937.163513 
	C1046.190674,935.891602 1031.450195,936.596252 1017.281494,941.392944 
	C1006.613770,945.004395 995.814941,948.522766 985.713013,953.403992 
	C979.318054,956.494080 972.884644,960.174622 968.619873,966.963135 
	C966.949951,969.621216 961.241211,970.588867 957.307373,970.749939 
	C952.996521,970.926575 949.511658,968.068420 947.433228,963.962036 
	C943.412781,956.019104 949.134277,951.186707 953.392151,946.211670 
	C960.874634,937.468628 971.031494,932.461914 981.347900,928.016907 
	C989.899963,924.332214 998.641724,921.013062 1007.486633,918.100586 
	C1019.680176,914.085388 1032.279541,911.955811 1045.142822,911.524170 
	C1046.579224,911.476013 1048.004272,911.088684 1050.527710,910.682800 
	C1047.020264,907.303101 1043.875000,904.561096 1041.079346,901.499817 
	C1038.094238,898.230957 1034.946167,894.941650 1032.780396,891.141785 
	C1030.663818,887.428406 1027.342163,886.881104 1023.980225,886.026184 
	C1017.050293,884.263916 1010.047913,881.172791 1003.132568,881.319763 
	C990.631958,881.585449 978.724060,885.345764 967.551392,891.520752 
	C952.479919,899.850647 938.546326,909.609192 926.641968,922.040466 
	C923.438293,925.385925 920.935913,929.582642 918.812622,933.746033 
	C914.198364,942.793701 904.371399,945.681702 896.624390,936.772278 
	C895.002747,934.907166 894.820374,930.584045 895.695862,927.970154 
	C898.894592,918.420654 904.219849,910.068909 911.986145,903.424561 
	C919.675598,896.845886 926.980103,889.765930 935.041138,883.684998 
	C946.942322,874.707031 959.891968,867.353577 973.909363,862.092957 
	C976.325256,861.186340 979.026978,861.041260 982.035034,860.459717 
	C977.285522,853.732178 972.583008,847.071228 968.331360,841.048950 
	C959.612366,841.601501 950.906372,841.746704 942.328552,842.870789 
	C938.134155,843.420349 934.091797,845.597839 930.130615,847.372986 
	C916.879089,853.311890 905.157959,861.580811 895.932617,872.751648 
	C887.881165,882.501038 880.414673,892.799744 873.488525,903.378662 
	C870.838623,907.426025 869.957825,912.843994 869.065186,917.781006 
	C867.622253,925.761536 863.332092,928.865295 856.074646,928.945740 
	C851.136475,929.000610 847.279419,923.031738 846.949707,916.696167 
	C846.172852,901.771301 853.327942,889.646606 861.488770,878.453430 
	C869.508423,867.453735 879.115784,857.588440 888.302307,847.475952 
	C891.320496,844.153564 895.201172,841.614746 899.236938,838.261047 
	C891.103027,836.384583 883.047791,835.933411 876.432495,832.613220 
	C869.506104,829.137085 865.627808,833.232727 860.774719,835.574280 
	C838.786926,846.182861 815.689880,853.207703 791.803406,858.118835 
	C769.514587,862.701477 747.068909,864.930298 724.397095,863.867371 
	C711.617798,863.268250 698.822388,861.851074 686.174927,859.893738 
	C670.002502,857.390991 653.815552,854.617065 637.924011,850.767029 
	C622.020813,846.914124 606.604431,841.078857 590.739563,837.034851 
	C568.093445,831.262329 545.418213,825.202759 522.401306,821.422119 
	C506.191437,818.759583 489.360870,818.696960 472.864502,819.232178 
	C447.731842,820.047546 422.774475,823.558960 398.244629,829.185730 
	C381.456421,833.036682 365.237335,838.655090 350.794159,848.605591 
	C345.271454,852.410522 339.586914,851.439819 334.659760,845.075623 
	C331.465729,840.950012 332.999054,833.440796 337.570038,829.719299 
	C348.490021,820.828918 361.189209,815.145874 374.501862,811.573730 
	C392.970886,806.617981 411.679138,802.130249 430.560303,799.242004 
	C453.888550,795.673523 477.512268,794.190308 501.189758,794.992493 
	C503.183350,795.059998 505.181213,795.001404 508.597015,795.001404 
	C483.937866,786.167297 460.161804,779.377625 435.738159,774.996033 
	C419.958588,772.165222 404.166656,769.316406 388.287231,767.161194 
	C378.176331,765.788818 367.893402,765.696350 357.691315,764.977112 
	C354.252655,764.734619 350.829498,764.097778 347.392365,764.038147 
	C332.299042,763.776428 317.262299,763.837708 302.723236,769.034241 
	C297.675507,770.838379 291.312286,767.504700 289.440613,762.590942 
	C287.245148,756.827026 290.214844,750.227966 294.300995,747.881104 
	C302.524628,743.157959 311.533508,741.402039 320.700165,741.125793 
	C335.698181,740.673767 350.754364,740.383057 365.721771,741.200562 
	C379.807037,741.969727 393.834015,744.073730 407.840790,745.935242 
	C420.639160,747.636230 433.376190,749.798889 446.933624,751.879822 
	C437.734802,744.610168 429.091675,737.692749 420.354889,730.895691 
	C407.375427,720.797913 394.586426,710.426697 381.222687,700.861572 
	C372.170929,694.382690 362.298126,689.044189 352.745087,683.274231 
	C340.283386,675.747437 327.472839,668.752258 315.364166,660.698669 
	C300.931000,651.098999 286.198059,641.632751 273.197327,630.274597 
	C255.744400,615.026733 239.769211,598.079712 223.279602,581.741089 
	C217.625336,576.138611 212.384399,570.121399 206.860306,564.384521 
	C200.439011,557.715942 200.777603,552.689941 204.841751,544.615601 
	C206.914398,540.497803 213.611847,538.200623 219.976532,540.005554 
	C228.146729,542.322510 236.129608,545.299927 244.688034,548.292358 
	C245.609665,548.637512 246.036453,548.683105 246.463257,548.728760 
	C246.198090,548.279175 245.932922,547.829651 245.667755,547.380066 
	C237.587036,535.240967 229.539230,523.079773 221.412292,510.971680 
	C217.086166,504.526337 218.584198,496.675812 225.105103,492.346436 
	C230.094391,489.033966 237.959183,491.057190 241.472763,497.018829 
	C245.929337,504.580414 253.506653,508.319092 260.283356,512.964172 
	C289.169434,532.764038 320.591034,547.683533 353.063049,560.511108 
	C357.000885,562.066772 361.093201,563.231384 365.795227,564.777466 
	C370.346863,566.829651 374.046844,569.324768 378.121826,570.404114 
	C387.599091,572.914551 397.221161,574.933960 406.860718,576.747498 
	C410.441498,577.421082 414.235046,576.963684 418.368011,577.014832 
	C430.064575,577.944214 441.311981,579.453796 452.587341,579.704407 
	C480.705872,580.329468 508.837128,580.382141 537.324036,580.766052 
	C550.916931,587.877625 564.173523,594.842041 577.372620,601.913757 
	C586.311829,606.703186 595.170105,611.643555 604.105347,616.928467 
	C606.314697,624.322021 608.790344,631.225281 610.593628,638.299866 
	C615.756409,658.554199 618.339294,678.973145 615.370728,699.965271 
	C611.862061,724.776917 600.782349,746.113037 586.411072,766.028076 
	C581.395203,772.978821 575.720276,779.453918 570.232605,786.287842 
	C571.486328,787.165894 572.523804,787.991760 573.651245,788.667480 
	C598.261963,803.418640 624.024170,815.864990 650.955200,825.672302 
	C678.626953,835.749451 707.320679,841.856201 736.824158,841.614929 
	C752.677185,841.485291 768.640015,839.362671 784.317627,836.734070 
	C808.844788,832.621643 832.703308,825.797058 854.610535,813.580444 
	C864.421265,808.109436 873.627258,801.787720 876.815369,789.869690 
	C881.440979,772.577942 883.046265,754.891113 883.908264,737.113342 
	C884.725525,720.258850 882.780457,703.597839 880.191223,686.787354 
	C887.593872,685.114380 894.683655,683.681641 901.820435,682.668945 
	C902.984680,694.977722 904.686768,706.847778 905.068665,718.760071 
	C905.530579,733.169556 906.345215,747.824707 904.322754,761.990356 
	C901.909607,778.892639 899.720215,796.148193 892.119263,812.186646 
	C892.825562,812.458313 893.385010,812.763062 893.982300,812.890076 
	C913.386475,817.020325 932.974121,819.370483 952.849182,819.089661 
	C966.400574,818.898254 977.216431,813.588074 985.251648,802.548035 
	C994.584900,789.724487 1000.412842,775.256836 1005.356812,760.370728 
	C1011.665222,741.376465 1016.335999,722.045593 1016.846191,701.437378 
	C1017.080505,687.185486 1016.855713,673.477478 1013.045166,660.016174 
	C1011.663574,655.135437 1009.751343,651.822144 1004.307861,651.207031 
	C1000.536560,650.781006 996.829773,649.783081 993.302368,648.776855 
	C1000.854553,644.348145 1008.134644,640.063477 1015.581482,636.091370 
	C1017.806519,634.904541 1020.498047,634.591980 1022.975891,633.878906 
M335.911346,645.726013 
	C335.819275,645.674805 335.727234,645.623596 335.635162,645.572388 
	C335.767090,645.707092 335.898987,645.841797 336.111786,646.234192 
	C336.190186,646.275879 336.268585,646.317566 336.346985,646.359192 
	C336.222961,646.250244 336.098969,646.141235 335.911346,645.726013 
M1132.514893,800.224670 
	C1132.114258,800.952087 1131.645874,801.650757 1131.322754,802.411133 
	C1118.898804,831.638367 1098.772461,854.781250 1074.183350,874.300659 
	C1069.180420,878.272156 1063.495361,881.384521 1057.340698,885.405212 
	C1064.203003,891.666809 1070.408447,897.641602 1076.943115,903.231567 
	C1094.473267,918.227295 1114.434692,924.243225 1137.520752,920.224182 
	C1161.620728,916.028625 1182.519165,905.243225 1201.618042,890.584717 
	C1206.269897,887.014404 1209.928833,882.150513 1214.656250,877.547668 
	C1215.833862,871.279602 1218.328857,864.927307 1217.934570,858.759766 
	C1216.880615,842.277832 1210.127319,827.336304 1202.896240,812.725159 
	C1190.092407,786.853882 1172.495483,765.196655 1147.287964,750.363098 
	C1145.803223,749.489380 1144.211060,748.798096 1143.125488,748.251770 
	C1141.323120,759.699341 1139.799805,770.710144 1137.788086,781.630981 
	C1136.654663,787.784058 1134.715698,793.788757 1132.514893,800.224670 
M1037.300537,720.579773 
	C1033.819092,744.242737 1027.089111,767.007751 1017.377319,788.800659 
	C1010.670105,803.851257 1003.067444,818.517273 988.343933,827.821350 
	C996.976990,843.519348 1009.494690,854.456543 1025.474365,862.097595 
	C1038.788940,868.464294 1050.111206,866.605652 1061.390869,857.507019 
	C1077.489502,844.521240 1091.100586,829.444458 1102.028320,811.959595 
	C1109.671631,799.730042 1115.162354,786.600403 1117.576050,771.536255 
	C1118.354614,759.774231 1119.406372,748.021484 1119.810059,736.246643 
	C1120.055786,729.079346 1117.678467,722.696167 1112.347656,717.347534 
	C1092.831177,697.766052 1070.808350,682.029114 1044.747681,672.334778 
	C1042.718506,671.580017 1040.492554,671.354431 1037.729614,670.744080 
	C1037.729614,687.742859 1037.729614,703.845276 1037.300537,720.579773 
M1251.525391,986.709106 
	C1256.678711,951.905701 1255.050293,918.319397 1235.288574,888.751099 
	C1225.057861,897.795715 1215.390015,906.342773 1205.056641,915.014465 
	C1199.780884,918.189026 1194.542480,921.427734 1189.222900,924.527100 
	C1163.380127,939.584595 1135.642212,945.933716 1105.829102,942.375183 
	C1102.579224,941.987366 1102.035645,943.554504 1102.123413,946.047913 
	C1102.369141,953.025757 1103.227295,960.035095 1102.817627,966.971375 
	C1102.093140,979.237000 1107.673950,987.970398 1116.841797,995.097107 
	C1119.338135,997.037598 1121.924072,998.865540 1124.381836,1000.852722 
	C1155.894531,1026.331787 1215.458496,1027.993042 1241.583374,1004.580505 
	C1247.090698,999.644958 1250.157349,994.364868 1251.525391,986.709106 
M279.910889,552.712830 
	C279.814575,552.679382 279.718262,552.645996 279.621948,552.612549 
	C279.740479,552.748047 279.859009,552.883606 280.005188,553.721130 
	C290.065216,565.659668 299.370758,578.349243 310.346436,589.376404 
	C331.472870,610.601868 353.325653,631.122986 375.310150,651.468384 
	C387.502594,662.751831 400.562561,673.098633 413.245636,683.850952 
	C422.502045,691.698181 431.859558,699.428650 441.009735,707.397400 
	C444.350555,710.306946 446.602448,713.826111 445.451141,718.852295 
	C445.152039,720.157959 446.660400,722.521912 447.997803,723.459656 
	C463.375153,734.241516 478.499420,745.458069 494.461273,755.311096 
	C509.311951,764.478271 525.055725,772.196045 542.070251,776.888306 
	C545.690979,777.886902 548.545349,777.454407 550.934753,774.458008 
	C559.009705,764.331299 567.802612,754.695679 575.056824,744.013794 
	C588.159790,724.719543 595.468384,703.160217 594.712524,679.649170 
	C594.078552,659.928589 589.603271,640.862427 582.230225,622.452515 
	C578.148315,612.260132 572.424744,604.957825 560.417725,604.607666 
	C552.562927,604.378601 544.724731,603.577209 536.130493,603.000305 
	C525.778442,598.800476 515.393494,598.918274 504.284882,602.323425 
	C487.350342,601.913391 470.394318,601.898376 453.487366,600.980530 
	C437.107971,600.091248 420.677643,598.994141 404.448975,596.713074 
	C371.132172,592.030151 339.669861,581.017395 309.302521,566.740906 
	C299.541168,562.151855 289.776978,557.568726 279.910889,552.712830 
M1020.500000,1112.843872 
	C1000.276489,1114.223389 980.018005,1115.223511 959.838989,1117.085693 
	C938.418518,1119.062378 917.448853,1123.511841 897.229248,1131.097534 
	C878.740906,1138.034058 862.559937,1148.323242 851.078491,1164.673950 
	C841.090210,1178.898193 834.847839,1194.136597 841.710510,1211.970215 
	C843.266785,1216.014648 845.380859,1217.374146 849.518921,1216.846558 
	C869.594482,1214.286865 889.124023,1209.339111 907.865601,1201.914429 
	C934.159302,1191.497925 960.495483,1181.039429 986.097778,1169.067993 
	C1012.767761,1156.597290 1038.542358,1142.218994 1064.821533,1128.897827 
	C1069.402466,1126.575806 1070.622070,1123.135254 1070.775024,1117.998291 
	C1067.269775,1117.007935 1063.836182,1115.424072 1060.300659,1115.148804 
	C1047.385498,1114.143066 1034.436401,1113.573730 1020.500000,1112.843872 
M1125.114868,1027.438599 
	C1118.115356,1022.655029 1111.034302,1017.984680 1104.153320,1013.036133 
	C1101.083130,1010.828247 1098.742432,1010.462891 1095.992065,1013.523132 
	C1090.656372,1019.459961 1084.675293,1024.854004 1079.681030,1031.052612 
	C1069.631836,1043.525391 1060.034180,1056.398926 1057.592896,1072.896484 
	C1057.325439,1074.703369 1058.239014,1076.878296 1059.120850,1078.621582 
	C1060.903198,1082.144897 1064.612183,1085.461060 1064.673462,1088.913208 
	C1064.772827,1094.513794 1067.788696,1095.218506 1071.750854,1096.418579 
	C1083.125977,1099.864258 1084.090942,1101.209106 1085.216797,1112.929932 
	C1085.239990,1113.170776 1085.658325,1113.373657 1086.038940,1113.732422 
	C1086.561523,1113.681152 1087.246216,1113.733276 1087.850098,1113.537109 
	C1103.808472,1108.348022 1119.969971,1103.694946 1135.662476,1097.795532 
	C1161.450317,1088.101196 1186.432373,1076.610718 1207.098511,1057.771606 
	C1213.230591,1052.181763 1218.388428,1045.523193 1223.992676,1039.354492 
	C1172.762451,1045.617188 1156.665039,1043.858521 1125.114868,1027.438599 
M921.959839,1101.462280 
	C959.912476,1093.603027 998.348328,1091.099976 1037.219238,1091.171753 
	C1034.014160,1088.698486 1030.825928,1086.514038 1027.299805,1085.375854 
	C1004.189026,1077.914673 980.222839,1075.166870 956.149414,1074.339722 
	C940.259583,1073.793701 924.229980,1074.688110 908.384094,1076.204224 
	C891.280884,1077.840698 874.699585,1082.268677 859.316772,1090.341553 
	C847.564087,1096.509399 839.806030,1105.889648 837.554321,1119.092407 
	C836.202637,1127.018433 835.973572,1135.082642 839.818420,1143.449829 
	C862.173584,1119.168823 890.574524,1108.276733 921.959839,1101.462280 
M970.552979,1044.910156 
	C954.450623,1036.927856 937.569458,1032.545654 919.464844,1034.055176 
	C907.003418,1035.094116 896.313232,1039.924561 888.134399,1049.564941 
	C886.316345,1051.707886 885.183472,1054.432129 883.735107,1056.888672 
	C884.020325,1057.295776 884.305542,1057.702881 884.590759,1058.109985 
	C918.479492,1049.693115 952.636353,1051.189453 986.862488,1055.246094 
	C986.970276,1054.828125 987.078003,1054.410278 987.185730,1053.992432 
	C981.871460,1051.062378 976.557129,1048.132202 970.552979,1044.910156 
M315.045258,625.472473 
	C304.507324,614.360352 293.950806,603.265747 283.437286,592.130554 
	C274.862030,583.048340 262.016968,583.198669 251.932861,577.239075 
	C275.813751,603.803711 302.628815,626.595032 333.192810,644.795715 
	C333.548157,644.402405 333.903503,644.009094 334.258850,643.615784 
	C328.021851,637.733887 321.784882,631.852051 315.045258,625.472473 
M338.416870,647.496216 
	C338.416870,647.496216 338.478302,647.470703 338.416870,647.496216 
z"/>
<path fill="#5C26B7" opacity="1.000000" stroke="none" 
	d="
M1023.141968,633.582397 
	C1020.498047,634.591980 1017.806519,634.904541 1015.581482,636.091370 
	C1008.134644,640.063477 1000.854553,644.348145 992.958130,648.905334 
	C976.124146,656.192627 959.842773,663.087646 943.201782,669.988525 
	C929.152649,674.079224 915.463013,678.164124 901.773438,682.248962 
	C894.683655,683.681641 887.593872,685.114380 879.779297,686.757446 
	C870.320435,687.981934 861.601562,689.156372 852.849792,689.982910 
	C812.259155,693.816528 772.602661,690.044983 733.828491,676.656555 
	C702.262756,665.757080 672.201721,651.689941 642.659973,636.327332 
	C629.830322,629.655457 616.931763,623.116089 604.064514,616.516479 
	C595.170105,611.643555 586.311829,606.703186 577.372620,601.913757 
	C564.173523,594.842041 550.916931,587.877625 537.122437,580.519958 
	C533.866333,578.532837 531.215088,576.818115 528.471863,575.266113 
	C511.091064,565.432495 493.386841,556.131348 476.352600,545.731873 
	C426.357910,515.209900 376.652466,484.214600 326.763428,453.518951 
	C319.765900,449.213470 312.374847,445.547577 305.165985,441.585602 
	C304.758301,441.985382 304.350616,442.385162 303.942963,442.784943 
	C304.262787,444.306213 304.276306,445.982269 304.953644,447.322937 
	C308.545715,454.432983 311.775635,461.802155 316.095245,468.455536 
	C337.136108,500.863953 361.879974,530.163208 391.145325,555.482727 
	C399.804352,562.974304 408.988220,569.859131 417.931580,577.022034 
	C414.235046,576.963684 410.441498,577.421082 406.860718,576.747498 
	C397.221161,574.933960 387.599091,572.914551 378.121826,570.404114 
	C374.046844,569.324768 370.346863,566.829651 366.233673,564.939087 
	C359.372559,558.149231 352.425201,551.686157 346.208740,544.583313 
	C335.330688,532.154297 324.610687,519.562622 314.363098,506.612885 
	C303.355865,492.703033 293.101959,478.217987 285.430389,462.096649 
	C281.245087,453.301544 278.563782,444.210724 279.964020,434.333130 
	C281.190063,425.684479 290.216949,418.270111 299.026855,417.915558 
	C309.813843,417.481445 319.427612,422.113647 329.603485,424.289459 
	C352.634003,429.213898 375.648773,434.213745 398.701477,439.032104 
	C413.262482,442.075562 427.815765,445.251709 442.495880,447.595734 
	C452.028137,449.117828 461.778992,449.305481 471.442566,449.924164 
	C472.539642,449.994385 474.024109,449.272614 474.790955,448.429016 
	C482.522522,439.923676 489.777863,430.947083 497.946991,422.894135 
	C501.996674,418.902069 503.436920,415.315002 501.951843,409.994781 
	C499.363708,400.722870 502.396881,392.312286 509.677582,387.189697 
	C542.105408,364.373810 566.988464,333.616821 595.708069,306.922455 
	C608.490540,295.041351 621.579163,283.429016 635.182312,272.508698 
	C648.220642,262.041840 661.736633,252.067307 675.713806,242.899414 
	C692.077148,232.166428 709.985535,224.775360 729.370667,220.836304 
	C745.358826,217.587524 761.404785,217.148117 777.039795,220.658722 
	C785.502869,222.558945 793.978577,227.354889 800.827148,232.861221 
	C813.919617,243.387756 826.030640,255.169891 838.203735,266.792480 
	C846.063904,274.297272 852.929321,282.858612 860.915894,290.213074 
	C874.734253,302.937775 887.262085,317.399994 905.323181,324.757751 
	C914.909851,328.663208 924.637390,332.377838 933.783813,337.166962 
	C943.629944,342.322449 949.863281,350.498352 950.028198,362.331726 
	C950.148376,370.952362 949.553284,379.376282 946.273682,387.521667 
	C942.385193,397.179108 946.127075,404.876190 951.959290,412.861084 
	C957.879944,420.967072 962.042908,430.356903 966.810791,439.882660 
	C966.192444,440.758301 965.725159,441.119171 965.287231,441.086548 
	C952.834839,440.159180 947.682617,443.948456 944.768799,456.008026 
	C944.092102,458.808685 942.969543,461.501587 942.052124,464.244080 
	C930.427551,459.861786 918.970337,454.939178 907.124878,451.269775 
	C897.809631,448.384155 888.005066,447.092102 878.436035,445.008423 
	C863.099731,441.668915 854.174805,428.675262 853.002075,413.897827 
	C852.637756,409.306641 852.590637,404.667542 851.841980,400.142395 
	C851.590820,398.624390 849.681824,396.281891 848.414673,396.203918 
	C837.918762,395.558472 827.396118,395.229797 816.879944,395.181946 
	C815.590576,395.176086 813.588745,397.176392 813.146729,398.622803 
	C812.301086,401.390045 812.176086,404.420166 812.042358,407.354462 
	C811.627991,416.450867 810.688660,425.591064 811.203247,434.643219 
	C811.727295,443.862366 813.694275,453.003693 815.169373,462.156525 
	C815.284546,462.871216 816.398254,463.678558 817.219421,463.988739 
	C837.178894,471.527924 847.011536,487.562012 852.979492,506.737671 
	C856.836731,519.131592 860.265686,531.660034 864.237488,544.015442 
	C864.815308,545.812927 867.134766,547.795776 869.021240,548.301392 
	C878.313721,550.791748 887.650940,553.291870 897.123779,554.892822 
	C913.094910,557.591980 929.158813,559.780273 945.226013,561.856323 
	C953.559326,562.933044 962.006592,563.101013 970.361389,564.042725 
	C990.102234,566.267883 1009.913513,568.120850 1029.511475,571.272888 
	C1042.533325,573.367249 1050.371826,582.744690 1052.343994,595.375488 
	C1053.386841,602.055420 1051.753906,609.923828 1046.297974,614.953674 
	C1039.110107,621.580139 1031.013794,627.221191 1023.141968,633.582397 
M772.775391,467.663422 
	C772.573853,467.406982 772.322449,467.216400 771.825256,466.429749 
	C768.971191,463.896484 765.982483,461.498322 763.284912,458.808167 
	C745.129822,440.703583 731.176086,419.377991 717.138916,398.142365 
	C710.441223,388.010010 704.044250,377.673096 697.726746,367.297577 
	C694.645081,362.236298 695.535339,355.852600 699.254639,352.567139 
	C703.117493,349.154846 709.242493,348.980591 713.547729,352.477600 
	C715.180054,353.803558 716.437927,355.679932 717.604919,357.475403 
	C727.853516,373.243561 737.891479,389.151031 748.318909,404.799347 
	C752.992004,411.812164 758.410278,418.328461 763.743958,425.749695 
	C770.815979,435.149200 778.211609,444.232300 787.369507,450.772705 
	C788.130798,434.693848 788.627502,418.639832 789.721130,402.626587 
	C790.875732,385.721008 792.599609,368.854340 793.976990,351.981934 
	C793.976990,351.981934 793.983398,352.080261 794.563232,352.284821 
	C794.675232,351.896332 794.787170,351.507812 795.084290,350.337799 
	C795.378357,348.871826 795.636230,347.397491 795.972595,345.941284 
	C797.671387,338.586273 803.324585,334.068756 809.271606,335.290253 
	C815.980530,336.668213 818.868042,342.271606 817.430908,350.428436 
	C816.205811,357.381683 815.329834,364.396393 814.380066,370.836914 
	C827.980408,371.587006 840.987854,372.304382 854.433289,373.596649 
	C865.855286,376.195465 872.911743,382.942230 874.465637,394.824310 
	C875.047974,399.277008 875.529846,403.746094 875.923096,408.219543 
	C876.769714,417.850464 877.072388,417.912231 886.178894,420.857544 
	C902.931396,426.275787 919.575867,432.028046 936.266724,437.636932 
	C937.717102,438.124298 939.177979,438.580231 941.796021,439.426270 
	C939.712097,435.474182 938.563049,432.480255 936.730042,429.989777 
	C932.993164,424.912598 928.805542,420.170074 924.955200,415.172821 
	C920.190735,408.988922 918.924805,401.885437 920.450562,394.377106 
	C921.440247,389.506714 923.177979,384.792114 924.272827,379.938293 
	C925.364258,375.099640 926.640564,370.181976 926.706421,365.283813 
	C926.739075,362.852020 924.820435,359.546082 922.758118,358.118591 
	C918.987732,355.508728 914.570740,353.684784 910.220093,352.086426 
	C888.125977,343.969513 869.134094,331.385925 852.544556,314.600861 
	C832.180847,293.997253 811.124207,274.075714 790.249756,253.981247 
	C784.143005,248.102631 776.905640,244.173157 768.342712,242.861603 
	C751.351807,240.259201 734.863281,242.270798 718.690002,247.799698 
	C693.375549,256.453552 672.124817,271.845276 651.479370,288.243378 
	C621.388184,312.144012 594.614380,339.543701 568.208374,367.325500 
	C567.560730,368.006836 567.331238,369.085602 566.993103,369.992615 
	C566.993103,369.992615 567.005005,369.905975 566.450623,369.366913 
	C565.943298,369.909119 565.436035,370.451294 565.010254,371.014740 
	C565.010254,371.014740 565.034302,370.934113 564.405823,371.141510 
	C564.078918,371.437805 563.752014,371.734100 562.806946,372.108978 
	C553.711975,380.378662 545.239685,389.514191 535.325562,396.644897 
	C527.353210,402.378937 522.244995,407.456451 527.561646,417.407867 
	C527.926636,418.091003 527.627625,419.109070 527.935974,419.846558 
	C528.539673,421.290375 529.035828,423.006439 530.135132,423.977386 
	C535.617798,428.820068 541.148010,433.628143 546.903992,438.138947 
	C581.786133,465.475067 620.177429,486.455170 661.996155,501.101562 
	C686.079590,509.536407 710.749695,515.465393 736.180481,518.211975 
	C754.548035,520.195740 772.893982,521.569702 792.202026,519.846313 
	C804.424438,519.398254 816.574768,518.415283 828.387268,515.622925 
	C826.054504,499.716339 819.158508,488.106201 803.334412,483.633575 
	C803.176514,483.588928 803.031738,483.495605 802.882874,483.420959 
	C793.257385,478.592743 783.632080,473.764099 773.997864,469.004272 
	C773.997864,469.004272 774.066833,469.011963 773.843506,468.523224 
	C773.553955,468.325836 773.264404,468.128418 772.955200,468.026886 
	C772.955200,468.026886 773.048950,468.054901 772.775391,467.663422 
M837.550659,566.896362 
	C839.403870,564.740112 842.990417,562.423706 842.808533,560.455566 
	C842.043396,552.178650 840.152222,544.005737 838.606934,535.426758 
	C832.158081,536.780518 827.009033,537.861450 820.984741,538.905334 
	C819.489746,539.020630 817.984924,539.062561 816.501282,539.262085 
	C784.404968,543.578796 752.311279,542.971680 720.448914,537.715210 
	C649.180969,525.957947 585.457703,497.033142 529.044800,451.964722 
	C524.021240,447.951385 519.113892,443.792450 513.829834,439.434967 
	C508.364655,445.233826 503.273010,450.706299 498.094482,456.095215 
	C496.142426,458.126587 496.419861,459.853760 498.345398,461.618713 
	C499.572845,462.743835 500.733978,463.944824 501.998383,465.025726 
	C541.259888,498.589142 584.349304,525.642090 632.664062,544.563171 
	C690.599121,567.251770 750.045837,578.920349 812.335266,572.698975 
	C820.610107,571.872559 828.678406,568.978271 837.550659,566.896362 
M996.849731,621.146545 
	C1005.660400,615.544617 1014.628967,610.168396 1023.174927,604.188232 
	C1025.419312,602.617676 1026.354370,599.175781 1027.890625,596.593201 
	C1025.450684,595.433960 1023.103027,593.557556 1020.555969,593.229614 
	C1001.104187,590.725159 981.629333,588.376770 962.131348,586.258789 
	C929.073120,582.667725 895.956299,579.508667 862.893188,570.385864 
	C861.704468,572.749695 860.395142,575.353271 858.367981,577.919067 
	C850.331055,585.321106 840.932617,590.190186 830.143188,591.682861 
	C817.330017,593.455566 804.430359,595.677734 791.561768,595.719299 
	C773.155334,595.778809 754.613525,595.071899 736.368164,592.786621 
	C716.493958,590.297241 696.514404,586.974548 677.270264,581.563354 
	C654.591980,575.186523 632.432129,566.747742 610.440552,558.192749 
	C565.767090,540.814209 526.493164,514.484558 490.041809,483.687927 
	C484.222229,478.771149 479.223785,473.010712 470.242188,472.927856 
	C444.353546,472.689178 419.165039,467.115845 394.018707,461.541992 
	C388.685852,460.359924 383.346680,459.206085 378.010437,458.039246 
	C378.540833,459.732117 379.353363,460.523285 380.295502,461.104187 
	C416.980499,483.723145 453.346283,506.884735 490.471222,528.757690 
	C523.581299,548.265137 557.473999,566.451233 591.139404,585.006165 
	C605.863464,593.121582 620.976685,600.528625 635.747742,608.561401 
	C671.191101,627.836121 707.198730,645.836853 745.883301,657.818970 
	C766.905457,664.330383 788.220703,669.479065 810.453003,669.095276 
	C822.090881,668.894409 833.736023,668.649048 845.356934,668.030823 
	C863.623596,667.059143 881.706970,664.667603 899.466431,660.098572 
	C925.965332,653.281128 951.702332,644.294128 976.448242,632.628845 
	C983.267944,629.413879 989.575073,625.111816 996.849731,621.146545 
z"/>
<path fill="#FFB601" opacity="1.000000" stroke="none" 
	d="
M942.034424,464.601746 
	C942.969543,461.501587 944.092102,458.808685 944.768799,456.008026 
	C947.682617,443.948456 952.834839,440.159180 965.287231,441.086548 
	C965.725159,441.119171 966.192444,440.758301 966.867249,440.252869 
	C969.513855,441.869324 972.403503,443.452759 974.259949,445.839722 
	C977.326050,449.782166 979.725281,454.243225 982.557495,458.726166 
	C987.809509,458.155853 993.286438,457.442657 998.784790,456.987549 
	C1012.017700,455.892303 1020.087036,462.183136 1016.345520,475.756165 
	C1014.293213,483.201477 1009.585083,489.914673 1005.913879,497.280029 
	C1008.352112,502.551483 1011.283447,508.630341 1013.985840,514.809326 
	C1016.367920,520.255859 1015.098999,525.373718 1011.611938,529.870972 
	C1007.217041,535.538818 1000.941895,537.072998 994.379700,535.617493 
	C988.606873,534.337036 983.117371,531.779358 976.959229,529.592773 
	C972.903503,534.189514 968.142700,539.155823 963.894836,544.527771 
	C960.084961,549.345764 951.038757,551.306396 945.726440,548.847229 
	C937.584961,545.078308 936.034180,540.478333 937.750000,532.128723 
	C939.096313,525.577271 938.891052,518.706970 939.330811,512.593628 
	C931.253906,509.259857 923.686523,506.268555 916.231262,503.019928 
	C909.531067,500.100403 907.204590,493.005127 909.497375,485.895752 
	C911.860474,478.568054 918.241638,476.209778 923.984253,473.188446 
	C927.888489,471.134308 932.442200,470.352478 936.562500,468.654724 
	C938.550598,467.835541 940.209045,466.216339 942.034424,464.601746 
z"/>
<path fill="#FF707C" opacity="1.000000" stroke="none" 
	d="
M604.105347,616.928467 
	C616.931763,623.116089 629.830322,629.655457 642.659973,636.327332 
	C672.201721,651.689941 702.262756,665.757080 733.828491,676.656555 
	C772.602661,690.044983 812.259155,693.816528 852.849792,689.982910 
	C861.601562,689.156372 870.320435,687.981934 879.466431,686.997681 
	C882.780457,703.597839 884.725525,720.258850 883.908264,737.113342 
	C883.046265,754.891113 881.440979,772.577942 876.815369,789.869690 
	C873.627258,801.787720 864.421265,808.109436 854.610535,813.580444 
	C832.703308,825.797058 808.844788,832.621643 784.317627,836.734070 
	C768.640015,839.362671 752.677185,841.485291 736.824158,841.614929 
	C707.320679,841.856201 678.626953,835.749451 650.955200,825.672302 
	C624.024170,815.864990 598.261963,803.418640 573.651245,788.667480 
	C572.523804,787.991760 571.486328,787.165894 570.232605,786.287842 
	C575.720276,779.453918 581.395203,772.978821 586.411072,766.028076 
	C600.782349,746.113037 611.862061,724.776917 615.370728,699.965271 
	C618.339294,678.973145 615.756409,658.554199 610.593628,638.299866 
	C608.790344,631.225281 606.314697,624.322021 604.105347,616.928467 
z"/>
<path fill="#FE6F7B" opacity="1.000000" stroke="none" 
	d="
M280.014069,552.982910 
	C289.776978,557.568726 299.541168,562.151855 309.302521,566.740906 
	C339.669861,581.017395 371.132172,592.030151 404.448975,596.713074 
	C420.677643,598.994141 437.107971,600.091248 453.487366,600.980530 
	C470.394318,601.898376 487.350342,601.913391 504.289673,602.663269 
	C501.393829,604.913513 498.113464,606.430969 495.658539,608.802734 
	C485.305054,618.805359 484.738953,631.114075 488.628906,643.912231 
	C495.869446,667.734009 525.339478,683.880127 550.172913,678.155396 
	C572.662537,672.970886 578.373169,651.295776 568.048340,634.129700 
	C560.356079,621.340637 549.708130,610.954712 536.879089,603.032227 
	C544.724731,603.577209 552.562927,604.378601 560.417725,604.607666 
	C572.424744,604.957825 578.148315,612.260132 582.230225,622.452515 
	C589.603271,640.862427 594.078552,659.928589 594.712524,679.649170 
	C595.468384,703.160217 588.159790,724.719543 575.056824,744.013794 
	C567.802612,754.695679 559.009705,764.331299 550.934753,774.458008 
	C548.545349,777.454407 545.690979,777.886902 542.070251,776.888306 
	C525.055725,772.196045 509.311951,764.478271 494.461273,755.311096 
	C478.499420,745.458069 463.375153,734.241516 447.997803,723.459656 
	C446.660400,722.521912 445.152039,720.157959 445.451141,718.852295 
	C446.602448,713.826111 444.350555,710.306946 441.009735,707.397400 
	C431.859558,699.428650 422.502045,691.698181 413.245636,683.850952 
	C400.562561,673.098633 387.502594,662.751831 375.310150,651.468384 
	C353.325653,631.122986 331.472870,610.601868 310.346436,589.376404 
	C299.370758,578.349243 290.065216,565.659668 280.001404,553.361572 
	C279.997650,553.002014 280.014069,552.982910 280.014069,552.982910 
z"/>
<path fill="#FF707C" opacity="1.000000" stroke="none" 
	d="
M901.820435,682.668945 
	C915.463013,678.164124 929.152649,674.079224 943.410583,670.280396 
	C945.935913,672.074341 947.715210,673.932068 949.879639,675.031555 
	C961.094666,680.728149 972.135071,686.907654 983.767639,691.602478 
	C994.430847,695.906128 1005.770203,698.534546 1016.811646,701.901123 
	C1016.335999,722.045593 1011.665222,741.376465 1005.356812,760.370728 
	C1000.412842,775.256836 994.584900,789.724487 985.251648,802.548035 
	C977.216431,813.588074 966.400574,818.898254 952.849182,819.089661 
	C932.974121,819.370483 913.386475,817.020325 893.982300,812.890076 
	C893.385010,812.763062 892.825562,812.458313 892.119263,812.186646 
	C899.720215,796.148193 901.909607,778.892639 904.322754,761.990356 
	C906.345215,747.824707 905.530579,733.169556 905.068665,718.760071 
	C904.686768,706.847778 902.984680,694.977722 901.820435,682.668945 
z"/>
<path fill="#FE6F7C" opacity="1.000000" stroke="none" 
	d="
M1021.000000,1112.842041 
	C1034.436401,1113.573730 1047.385498,1114.143066 1060.300659,1115.148804 
	C1063.836182,1115.424072 1067.269775,1117.007935 1070.775024,1117.998291 
	C1070.622070,1123.135254 1069.402466,1126.575806 1064.821533,1128.897827 
	C1038.542358,1142.218994 1012.767761,1156.597290 986.097778,1169.067993 
	C960.495483,1181.039429 934.159302,1191.497925 907.865601,1201.914429 
	C889.124023,1209.339111 869.594482,1214.286865 849.518921,1216.846558 
	C845.380859,1217.374146 843.266785,1216.014648 841.710510,1211.970215 
	C834.847839,1194.136597 841.090210,1178.898193 851.078491,1164.673950 
	C862.559937,1148.323242 878.740906,1138.034058 897.229248,1131.097534 
	C917.448853,1123.511841 938.418518,1119.062378 959.838989,1117.085693 
	C980.018005,1115.223511 1000.276489,1114.223389 1021.000000,1112.842041 
z"/>
<path fill="#FF707C" opacity="1.000000" stroke="none" 
	d="
M1251.069336,987.388184 
	C1250.157349,994.364868 1247.090698,999.644958 1241.583374,1004.580505 
	C1215.458496,1027.993042 1155.894531,1026.331787 1124.381836,1000.852722 
	C1121.924072,998.865540 1119.338135,997.037598 1116.841797,995.097107 
	C1107.673950,987.970398 1102.093140,979.237000 1102.817627,966.971375 
	C1103.227295,960.035095 1102.369141,953.025757 1102.123413,946.047913 
	C1102.035645,943.554504 1102.579224,941.987366 1105.829102,942.375183 
	C1135.642212,945.933716 1163.380127,939.584595 1189.222900,924.527100 
	C1194.542480,921.427734 1199.780884,918.189026 1205.673340,915.161682 
	C1221.689819,925.885193 1232.002319,940.431702 1239.041382,957.482239 
	C1243.141357,967.413452 1247.065918,977.417114 1251.069336,987.388184 
z"/>
<path fill="#FF707C" opacity="1.000000" stroke="none" 
	d="
M1117.072998,772.161377 
	C1115.162354,786.600403 1109.671631,799.730042 1102.028320,811.959595 
	C1091.100586,829.444458 1077.489502,844.521240 1061.390869,857.507019 
	C1050.111206,866.605652 1038.788940,868.464294 1025.474365,862.097595 
	C1009.494690,854.456543 996.976990,843.519348 988.343933,827.821350 
	C1003.067444,818.517273 1010.670105,803.851257 1017.377319,788.800659 
	C1027.089111,767.007751 1033.819092,744.242737 1037.867432,720.377563 
	C1047.463745,723.867310 1056.297241,728.184265 1065.572021,731.094177 
	C1077.396973,734.804016 1088.007202,740.255859 1096.557617,749.178284 
	C1103.658325,756.588013 1110.253662,764.481934 1117.072998,772.161377 
z"/>
<path fill="#FF707C" opacity="1.000000" stroke="none" 
	d="
M1214.044312,877.881470 
	C1209.928833,882.150513 1206.269897,887.014404 1201.618042,890.584717 
	C1182.519165,905.243225 1161.620728,916.028625 1137.520752,920.224182 
	C1114.434692,924.243225 1094.473267,918.227295 1076.943115,903.231567 
	C1070.408447,897.641602 1064.203003,891.666809 1057.340698,885.405212 
	C1063.495361,881.384521 1069.180420,878.272156 1074.183350,874.300659 
	C1098.772461,854.781250 1118.898804,831.638367 1131.322754,802.411133 
	C1131.645874,801.650757 1132.114258,800.952087 1133.178589,800.084717 
	C1144.273071,807.316406 1155.007812,814.297913 1165.070068,822.142151 
	C1184.881592,837.586670 1201.864136,855.661682 1214.044312,877.881470 
z"/>
<path fill="#965FDC" opacity="1.000000" stroke="none" 
	d="
M418.368011,577.014832 
	C408.988220,569.859131 399.804352,562.974304 391.145325,555.482727 
	C361.879974,530.163208 337.136108,500.863953 316.095245,468.455536 
	C311.775635,461.802155 308.545715,454.432983 304.953644,447.322937 
	C304.276306,445.982269 304.262787,444.306213 303.942963,442.784943 
	C304.350616,442.385162 304.758301,441.985382 305.165985,441.585602 
	C312.374847,445.547577 319.765900,449.213470 326.763428,453.518951 
	C376.652466,484.214600 426.357910,515.209900 476.352600,545.731873 
	C493.386841,556.131348 511.091064,565.432495 528.471863,575.266113 
	C531.215088,576.818115 533.866333,578.532837 536.761658,580.418457 
	C508.837128,580.382141 480.705872,580.329468 452.587341,579.704407 
	C441.311981,579.453796 430.064575,577.944214 418.368011,577.014832 
z"/>
<path fill="#FE6F7C" opacity="1.000000" stroke="none" 
	d="
M1125.430908,1027.627686 
	C1156.665039,1043.858521 1172.762451,1045.617188 1223.992676,1039.354492 
	C1218.388428,1045.523193 1213.230591,1052.181763 1207.098511,1057.771606 
	C1186.432373,1076.610718 1161.450317,1088.101196 1135.662476,1097.795532 
	C1119.969971,1103.694946 1103.808472,1108.348022 1087.850098,1113.537109 
	C1087.246216,1113.733276 1086.561523,1113.681152 1086.038940,1113.732422 
	C1085.658325,1113.373657 1085.239990,1113.170776 1085.216797,1112.929932 
	C1084.090942,1101.209106 1083.125977,1099.864258 1071.750854,1096.418579 
	C1067.788696,1095.218506 1064.772827,1094.513794 1064.673462,1088.913208 
	C1064.612183,1085.461060 1060.903198,1082.144897 1059.120850,1078.621582 
	C1058.239014,1076.878296 1057.325439,1074.703369 1057.592896,1072.896484 
	C1060.034180,1056.398926 1069.631836,1043.525391 1079.681030,1031.052612 
	C1084.675293,1024.854004 1090.656372,1019.459961 1095.992065,1013.523132 
	C1098.742432,1010.462891 1101.083130,1010.828247 1104.153320,1013.036133 
	C1111.034302,1017.984680 1118.115356,1022.655029 1125.430908,1027.627686 
z"/>
<path fill="#FE6E7B" opacity="1.000000" stroke="none" 
	d="
M921.557739,1101.588135 
	C890.574524,1108.276733 862.173584,1119.168823 839.818420,1143.449829 
	C835.973572,1135.082642 836.202637,1127.018433 837.554321,1119.092407 
	C839.806030,1105.889648 847.564087,1096.509399 859.316772,1090.341553 
	C874.699585,1082.268677 891.280884,1077.840698 908.384094,1076.204224 
	C924.229980,1074.688110 940.259583,1073.793701 956.149414,1074.339722 
	C980.222839,1075.166870 1004.189026,1077.914673 1027.299805,1085.375854 
	C1030.825928,1086.514038 1034.014160,1088.698486 1037.219238,1091.171753 
	C998.348328,1091.099976 959.912476,1093.603027 921.557739,1101.588135 
z"/>
<path fill="#FEFDFD" opacity="1.000000" stroke="none" 
	d="
M1214.350342,877.714600 
	C1201.864136,855.661682 1184.881592,837.586670 1165.070068,822.142151 
	C1155.007812,814.297913 1144.273071,807.316406 1133.490967,799.902588 
	C1134.715698,793.788757 1136.654663,787.784058 1137.788086,781.630981 
	C1139.799805,770.710144 1141.323120,759.699341 1143.125488,748.251770 
	C1144.211060,748.798096 1145.803223,749.489380 1147.287964,750.363098 
	C1172.495483,765.196655 1190.092407,786.853882 1202.896240,812.725159 
	C1210.127319,827.336304 1216.880615,842.277832 1217.934570,858.759766 
	C1218.328857,864.927307 1215.833862,871.279602 1214.350342,877.714600 
z"/>
<path fill="#380E17" opacity="1.000000" stroke="none" 
	d="
M536.504761,603.016235 
	C549.708130,610.954712 560.356079,621.340637 568.048340,634.129700 
	C578.373169,651.295776 572.662537,672.970886 550.172913,678.155396 
	C525.339478,683.880127 495.869446,667.734009 488.628906,643.912231 
	C484.738953,631.114075 485.305054,618.805359 495.658539,608.802734 
	C498.113464,606.430969 501.393829,604.913513 504.637360,602.883179 
	C515.393494,598.918274 525.778442,598.800476 536.504761,603.016235 
M503.380890,623.211792 
	C500.535248,631.279236 504.059265,640.076233 511.824982,644.290649 
	C518.726196,648.035889 526.396179,645.846924 530.289612,639.020874 
	C534.802307,631.109070 532.782898,622.422852 525.324646,617.663574 
	C517.317078,612.553894 509.827911,614.265381 503.380890,623.211792 
M530.511536,660.810425 
	C531.772400,665.435974 534.801697,668.703979 539.487427,668.780212 
	C542.232666,668.825012 545.692078,667.291077 547.625366,665.298401 
	C550.750610,662.077209 550.937988,657.753113 548.089722,653.922241 
	C545.209534,650.048340 541.013306,648.787537 536.584412,650.051575 
	C531.849487,651.402893 529.970154,655.204224 530.511536,660.810425 
z"/>
<path fill="#FEFDFD" opacity="1.000000" stroke="none" 
	d="
M1117.324463,771.848816 
	C1110.253662,764.481934 1103.658325,756.588013 1096.557617,749.178284 
	C1088.007202,740.255859 1077.396973,734.804016 1065.572021,731.094177 
	C1056.297241,728.184265 1047.463745,723.867310 1038.081909,720.061523 
	C1037.729614,703.845276 1037.729614,687.742859 1037.729614,670.744080 
	C1040.492554,671.354431 1042.718506,671.580017 1044.747681,672.334778 
	C1070.808350,682.029114 1092.831177,697.766052 1112.347656,717.347534 
	C1117.678467,722.696167 1120.055786,729.079346 1119.810059,736.246643 
	C1119.406372,748.021484 1118.354614,759.774231 1117.324463,771.848816 
z"/>
<path fill="#FEFDFD" opacity="1.000000" stroke="none" 
	d="
M1016.846191,701.437378 
	C1005.770203,698.534546 994.430847,695.906128 983.767639,691.602478 
	C972.135071,686.907654 961.094666,680.728149 949.879639,675.031555 
	C947.715210,673.932068 945.935913,672.074341 943.770142,670.274536 
	C959.842773,663.087646 976.124146,656.192627 992.749878,649.169189 
	C996.829773,649.783081 1000.536560,650.781006 1004.307861,651.207031 
	C1009.751343,651.822144 1011.663574,655.135437 1013.045166,660.016174 
	C1016.855713,673.477478 1017.080505,687.185486 1016.846191,701.437378 
z"/>
<path fill="#FEFDFD" opacity="1.000000" stroke="none" 
	d="
M1251.297363,987.048645 
	C1247.065918,977.417114 1243.141357,967.413452 1239.041382,957.482239 
	C1232.002319,940.431702 1221.689819,925.885193 1206.006104,915.099365 
	C1215.390015,906.342773 1225.057861,897.795715 1235.288574,888.751099 
	C1255.050293,918.319397 1256.678711,951.905701 1251.297363,987.048645 
z"/>
<path fill="#FE6E7B" opacity="1.000000" stroke="none" 
	d="
M970.897888,1045.056152 
	C976.557129,1048.132202 981.871460,1051.062378 987.185730,1053.992432 
	C987.078003,1054.410278 986.970276,1054.828125 986.862488,1055.246094 
	C952.636353,1051.189453 918.479492,1049.693115 884.590759,1058.109985 
	C884.305542,1057.702881 884.020325,1057.295776 883.735107,1056.888672 
	C885.183472,1054.432129 886.316345,1051.707886 888.134399,1049.564941 
	C896.313232,1039.924561 907.003418,1035.094116 919.464844,1034.055176 
	C937.569458,1032.545654 954.450623,1036.927856 970.897888,1045.056152 
z"/>
<path fill="#FE6E7B" opacity="1.000000" stroke="none" 
	d="
M315.296570,625.721313 
	C321.784882,631.852051 328.021851,637.733887 334.258850,643.615784 
	C333.903503,644.009094 333.548157,644.402405 333.192810,644.795715 
	C302.628815,626.595032 275.813751,603.803711 251.932861,577.239075 
	C262.016968,583.198669 274.862030,583.048340 283.437286,592.130554 
	C293.950806,603.265747 304.507324,614.360352 315.296570,625.721313 
z"/>
<path fill="#000000" opacity="1.000000" stroke="none" 
	d="
M245.470795,547.544067 
	C245.932922,547.829651 246.198090,548.279175 246.463257,548.728760 
	C246.036453,548.683105 245.609665,548.637512 245.055527,548.339355 
	C245.043427,547.960510 245.158646,547.834290 245.470795,547.544067 
z"/>
<path fill="#FE6F7B" opacity="1.000000" stroke="none" 
	d="
M279.987610,553.010559 
	C279.859009,552.883606 279.740479,552.748047 279.621948,552.612549 
	C279.718262,552.645996 279.814575,552.679382 279.962463,552.847900 
	C280.014069,552.982910 279.997650,553.002014 279.987610,553.010559 
z"/>
<path fill="#FE6E7B" opacity="1.000000" stroke="none" 
	d="
M338.447571,647.483459 
	C338.478302,647.470703 338.416870,647.496216 338.447571,647.483459 
z"/>
<path fill="#FE6E7B" opacity="1.000000" stroke="none" 
	d="
M335.974976,646.032288 
	C336.098969,646.141235 336.222961,646.250244 336.346985,646.359192 
	C336.268585,646.317566 336.190186,646.275879 336.056183,646.118103 
	C336.000580,646.002014 335.974976,646.032288 335.974976,646.032288 
z"/>
<path fill="#FE6E7B" opacity="1.000000" stroke="none" 
	d="
M336.015747,645.989258 
	C335.898987,645.841797 335.767090,645.707092 335.635162,645.572388 
	C335.727234,645.623596 335.819275,645.674805 335.943176,645.879150 
	C335.974976,646.032288 336.000580,646.002014 336.015747,645.989258 
z"/>
<path fill="#9760DD" opacity="1.000000" stroke="none" 
	d="
M853.995300,373.021790 
	C840.987854,372.304382 827.980408,371.587006 814.380066,370.836914 
	C815.329834,364.396393 816.205811,357.381683 817.430908,350.428436 
	C818.868042,342.271606 815.980530,336.668213 809.271606,335.290253 
	C803.324585,334.068756 797.671387,338.586273 795.972595,345.941284 
	C795.636230,347.397491 795.378357,348.871826 794.761108,350.796448 
	C794.174255,351.468323 794.022705,351.743378 793.983398,352.080261 
	C793.983398,352.080261 793.976990,351.981934 793.709229,352.131714 
	C792.557007,354.064484 791.552979,355.798920 790.806030,357.637787 
	C781.678955,380.106323 772.589600,402.590179 763.490417,425.070068 
	C758.410278,418.328461 752.992004,411.812164 748.318909,404.799347 
	C737.891479,389.151031 727.853516,373.243561 717.604919,357.475403 
	C716.437927,355.679932 715.180054,353.803558 713.547729,352.477600 
	C709.242493,348.980591 703.117493,349.154846 699.254639,352.567139 
	C695.535339,355.852600 694.645081,362.236298 697.726746,367.297577 
	C704.044250,377.673096 710.441223,388.010010 717.138916,398.142365 
	C731.176086,419.377991 745.129822,440.703583 763.284912,458.808167 
	C765.982483,461.498322 768.971191,463.896484 772.112366,466.901611 
	C772.661438,467.557312 772.877930,467.784454 773.048950,468.054901 
	C773.048950,468.054901 772.955200,468.026886 773.024414,468.269775 
	C773.418030,468.679108 773.742432,468.845551 774.066833,469.011963 
	C774.066833,469.011963 773.997864,469.004272 773.912476,469.332764 
	C777.268250,476.054596 781.682678,482.127106 783.920471,488.916992 
	C787.211121,498.901642 788.948059,509.398346 791.346863,519.676941 
	C772.893982,521.569702 754.548035,520.195740 736.180481,518.211975 
	C710.749695,515.465393 686.079590,509.536407 661.996155,501.101562 
	C620.177429,486.455170 581.786133,465.475067 546.903992,438.138947 
	C541.148010,433.628143 535.617798,428.820068 530.135132,423.977386 
	C529.035828,423.006439 528.539673,421.290375 527.935974,419.846558 
	C527.627625,419.109070 527.926636,418.091003 527.561646,417.407867 
	C522.244995,407.456451 527.353210,402.378937 535.325562,396.644897 
	C545.239685,389.514191 553.711975,380.378662 563.443115,371.949585 
	C564.397644,371.504822 564.716003,371.219452 565.034302,370.934113 
	C565.034302,370.934113 565.010254,371.014740 565.302368,371.062866 
	C566.064697,370.709290 566.534851,370.307617 567.005005,369.905975 
	C567.005005,369.905975 566.993103,369.992615 567.304321,369.989288 
	C582.350708,359.675537 597.004517,349.246338 611.838013,339.079376 
	C642.924194,317.772644 674.931335,298.003510 709.294556,282.336761 
	C731.480957,272.221649 753.674377,271.068970 775.382202,283.763092 
	C811.411499,304.831940 836.182922,335.877258 853.995300,373.021790 
z"/>
<path fill="#9760DD" opacity="1.000000" stroke="none" 
	d="
M996.117432,621.308594 
	C989.575073,625.111816 983.267944,629.413879 976.448242,632.628845 
	C951.702332,644.294128 925.965332,653.281128 899.466431,660.098572 
	C881.706970,664.667603 863.623596,667.059143 845.356934,668.030823 
	C833.736023,668.649048 822.090881,668.894409 810.453003,669.095276 
	C788.220703,669.479065 766.905457,664.330383 745.883301,657.818970 
	C707.198730,645.836853 671.191101,627.836121 635.747742,608.561401 
	C620.976685,600.528625 605.863464,593.121582 591.139404,585.006165 
	C557.473999,566.451233 523.581299,548.265137 490.471222,528.757690 
	C453.346283,506.884735 416.980499,483.723145 380.295502,461.104187 
	C379.353363,460.523285 378.540833,459.732117 378.010437,458.039246 
	C383.346680,459.206085 388.685852,460.359924 394.018707,461.541992 
	C419.165039,467.115845 444.353546,472.689178 470.242188,472.927856 
	C479.223785,473.010712 484.222229,478.771149 490.041809,483.687927 
	C526.493164,514.484558 565.767090,540.814209 610.440552,558.192749 
	C632.432129,566.747742 654.591980,575.186523 677.270264,581.563354 
	C696.514404,586.974548 716.493958,590.297241 736.368164,592.786621 
	C754.613525,595.071899 773.155334,595.778809 791.561768,595.719299 
	C804.430359,595.677734 817.330017,593.455566 830.143188,591.682861 
	C840.932617,590.190186 850.331055,585.321106 859.068115,577.989319 
	C879.187744,590.511963 900.021729,599.917847 921.924316,607.063293 
	C946.061218,614.937683 970.904419,619.071106 996.117432,621.308594 
z"/>
<path fill="#FDFCFE" opacity="1.000000" stroke="none" 
	d="
M854.214294,373.309204 
	C836.182922,335.877258 811.411499,304.831940 775.382202,283.763092 
	C753.674377,271.068970 731.480957,272.221649 709.294556,282.336761 
	C674.931335,298.003510 642.924194,317.772644 611.838013,339.079376 
	C597.004517,349.246338 582.350708,359.675537 567.261108,369.982483 
	C567.331238,369.085602 567.560730,368.006836 568.208374,367.325500 
	C594.614380,339.543701 621.388184,312.144012 651.479370,288.243378 
	C672.124817,271.845276 693.375549,256.453552 718.690002,247.799698 
	C734.863281,242.270798 751.351807,240.259201 768.342712,242.861603 
	C776.905640,244.173157 784.143005,248.102631 790.249756,253.981247 
	C811.124207,274.075714 832.180847,293.997253 852.544556,314.600861 
	C869.134094,331.385925 888.125977,343.969513 910.220093,352.086426 
	C914.570740,353.684784 918.987732,355.508728 922.758118,358.118591 
	C924.820435,359.546082 926.739075,362.852020 926.706421,365.283813 
	C926.640564,370.181976 925.364258,375.099640 924.272827,379.938293 
	C923.177979,384.792114 921.440247,389.506714 920.450562,394.377106 
	C918.924805,401.885437 920.190735,408.988922 924.955200,415.172821 
	C928.805542,420.170074 932.993164,424.912598 936.730042,429.989777 
	C938.563049,432.480255 939.712097,435.474182 941.796021,439.426270 
	C939.177979,438.580231 937.717102,438.124298 936.266724,437.636932 
	C919.575867,432.028046 902.931396,426.275787 886.178894,420.857544 
	C877.072388,417.912231 876.769714,417.850464 875.923096,408.219543 
	C875.529846,403.746094 875.047974,399.277008 874.465637,394.824310 
	C872.911743,382.942230 865.855286,376.195465 854.214294,373.309204 
z"/>
<path fill="#FDB404" opacity="1.000000" stroke="none" 
	d="
M836.842346,567.041626 
	C828.678406,568.978271 820.610107,571.872559 812.335266,572.698975 
	C750.045837,578.920349 690.599121,567.251770 632.664062,544.563171 
	C584.349304,525.642090 541.259888,498.589142 501.998383,465.025726 
	C500.733978,463.944824 499.572845,462.743835 498.345398,461.618713 
	C496.419861,459.853760 496.142426,458.126587 498.094482,456.095215 
	C503.273010,450.706299 508.364655,445.233826 513.829834,439.434967 
	C519.113892,443.792450 524.021240,447.951385 529.044800,451.964722 
	C585.457703,497.033142 649.180969,525.957947 720.448914,537.715210 
	C752.311279,542.971680 784.404968,543.578796 816.501282,539.262085 
	C817.984924,539.062561 819.489746,539.020630 821.528198,539.276123 
	C826.995300,548.778442 831.918823,557.910034 836.842346,567.041626 
z"/>
<path fill="#FCFCFE" opacity="1.000000" stroke="none" 
	d="
M996.483582,621.227539 
	C970.904419,619.071106 946.061218,614.937683 921.924316,607.063293 
	C900.021729,599.917847 879.187744,590.511963 859.427124,578.008240 
	C860.395142,575.353271 861.704468,572.749695 862.893188,570.385864 
	C895.956299,579.508667 929.073120,582.667725 962.131348,586.258789 
	C981.629333,588.376770 1001.104187,590.725159 1020.555969,593.229614 
	C1023.103027,593.557556 1025.450684,595.433960 1027.890625,596.593201 
	C1026.354370,599.175781 1025.419312,602.617676 1023.174927,604.188232 
	C1014.628967,610.168396 1005.660400,615.544617 996.483582,621.227539 
z"/>
<path fill="#FCFCFE" opacity="1.000000" stroke="none" 
	d="
M791.774414,519.761597 
	C788.948059,509.398346 787.211121,498.901642 783.920471,488.916992 
	C781.682678,482.127106 777.268250,476.054596 773.916931,469.298401 
	C783.632080,473.764099 793.257385,478.592743 802.882874,483.420959 
	C803.031738,483.495605 803.176514,483.588928 803.334412,483.633575 
	C819.158508,488.106201 826.054504,499.716339 828.387268,515.622925 
	C816.574768,518.415283 804.424438,519.398254 791.774414,519.761597 
z"/>
<path fill="#FCFCFE" opacity="1.000000" stroke="none" 
	d="
M763.617188,425.409851 
	C772.589600,402.590179 781.678955,380.106323 790.806030,357.637787 
	C791.552979,355.798920 792.557007,354.064484 793.758179,352.126099 
	C792.599609,368.854340 790.875732,385.721008 789.721130,402.626587 
	C788.627502,418.639832 788.130798,434.693848 787.369507,450.772705 
	C778.211609,444.232300 770.815979,435.149200 763.617188,425.409851 
z"/>
<path fill="#FCFCFE" opacity="1.000000" stroke="none" 
	d="
M837.196533,566.968994 
	C831.918823,557.910034 826.995300,548.778442 821.965820,539.294617 
	C827.009033,537.861450 832.158081,536.780518 838.606934,535.426758 
	C840.152222,544.005737 842.043396,552.178650 842.808533,560.455566 
	C842.990417,562.423706 839.403870,564.740112 837.196533,566.968994 
z"/>
<path fill="#FDFCFE" opacity="1.000000" stroke="none" 
	d="
M566.727783,369.636444 
	C566.534851,370.307617 566.064697,370.709290 565.261658,371.052216 
	C565.436035,370.451294 565.943298,369.909119 566.727783,369.636444 
z"/>
<path fill="#FCFCFE" opacity="1.000000" stroke="none" 
	d="
M773.955200,468.767578 
	C773.742432,468.845551 773.418030,468.679108 773.034180,468.221832 
	C773.264404,468.128418 773.553955,468.325836 773.955200,468.767578 
z"/>
<path fill="#FCFCFE" opacity="1.000000" stroke="none" 
	d="
M772.912170,467.859161 
	C772.877930,467.784454 772.661438,467.557312 772.210266,467.232574 
	C772.322449,467.216400 772.573853,467.406982 772.912170,467.859161 
z"/>
<path fill="#FCFCFE" opacity="1.000000" stroke="none" 
	d="
M794.273315,352.182556 
	C794.022705,351.743378 794.174255,351.468323 794.668579,351.187195 
	C794.787170,351.507812 794.675232,351.896332 794.273315,352.182556 
z"/>
<path fill="#FDFCFE" opacity="1.000000" stroke="none" 
	d="
M564.720093,371.037811 
	C564.716003,371.219452 564.397644,371.504822 563.752197,371.910278 
	C563.752014,371.734100 564.078918,371.437805 564.720093,371.037811 
z"/>
<path fill="#FCFCFE" opacity="1.000000" stroke="none" 
	d="
M503.598145,622.895386 
	C509.827911,614.265381 517.317078,612.553894 525.324646,617.663574 
	C532.782898,622.422852 534.802307,631.109070 530.289612,639.020874 
	C526.396179,645.846924 518.726196,648.035889 511.824982,644.290649 
	C504.059265,640.076233 500.535248,631.279236 503.598145,622.895386 
z"/>
<path fill="#FCFCFE" opacity="1.000000" stroke="none" 
	d="
M530.401123,660.439575 
	C529.970154,655.204224 531.849487,651.402893 536.584412,650.051575 
	C541.013306,648.787537 545.209534,650.048340 548.089722,653.922241 
	C550.937988,657.753113 550.750610,662.077209 547.625366,665.298401 
	C545.692078,667.291077 542.232666,668.825012 539.487427,668.780212 
	C534.801697,668.703979 531.772400,665.435974 530.401123,660.439575 
z"/>
</svg>